<?xml version="1.0" encoding="iso-8859-1"?>
<!-- Uploaded to: SVG Repo, www.svgrepo.com, Generator: SVG Repo Mixer Tools -->
<svg height="800px" width="800px" version="1.1" id="Layer_1" xmlns="http://www.w3.org/2000/svg" xmlns:xlink="http://www.w3.org/1999/xlink" 
	 viewBox="0 0 512 512" xml:space="preserve">
<path style="fill:#E6563A;" d="M422.957,356.174c-9.217,0-16.696-7.479-16.696-16.696v-33.391c0-46.032,37.446-83.478,83.478-83.478
	c9.217,0,16.696,7.479,16.696,16.696v33.391C506.435,318.728,468.989,356.174,422.957,356.174z"/>
<path style="fill:#D9472B;" d="M501.188,227.206L414.25,353.661c2.54,1.565,5.504,2.513,8.706,2.513
	c46.032,0,83.478-37.446,83.478-83.478v-33.391C506.435,234.529,504.403,230.25,501.188,227.206z"/>
<path style="fill:#FFE14D;" d="M422.957,289.391H89.043c-9.217,0-16.696-7.479-16.696-16.696
	c0-101.261,82.391-183.652,183.652-183.652s183.652,82.391,183.652,183.652C439.652,281.913,432.174,289.391,422.957,289.391z"/>
<path style="fill:#FFCC33;" d="M422.957,289.391c9.217,0,16.696-7.479,16.696-16.696c0-101.261-82.391-183.652-183.652-183.652
	v200.348H422.957z"/>
<path style="fill:#E6563A;" d="M438.896,256H73.105c-0.5,5.507-0.757,11.06-0.757,16.696v83.478h367.304v-83.478
	C439.652,267.06,439.395,261.507,438.896,256z"/>
<path style="fill:#D9472B;" d="M256,256v100.174h183.652v-83.478c0-5.635-0.258-11.188-0.756-16.696H256z"/>
<path style="fill:#FFE14D;" d="M495.304,422.957H16.696C7.479,422.957,0,415.478,0,406.261c0-46.032,37.446-83.478,83.478-83.478
	h345.043c46.032,0,83.478,37.446,83.478,83.478C512,415.478,504.521,422.957,495.304,422.957z"/>
<path style="fill:#FFCC33;" d="M428.522,322.783H256v100.174h239.304c9.217,0,16.696-7.479,16.696-16.696
	C512,360.229,474.554,322.783,428.522,322.783z"/>
</svg>